<?xml version="1.0" encoding="UTF-8" standalone="no"?>
<svg width="48px" height="44px" viewBox="0 0 48 44" version="1.1" xmlns="http://www.w3.org/2000/svg" xmlns:xlink="http://www.w3.org/1999/xlink">
    <!-- Generator: Sketch 3.6.1 (26313) - http://www.bohemiancoding.com/sketch -->
    <title>ablogodark</title>
    <desc>Created with Sketch.</desc>
    <defs></defs>
    <g id="Page-1" stroke="none" stroke-width="1" fill="none" fill-rule="evenodd">
        <g id="ablogodark">
            <g id="Page-1">
                <g id="ablogowhite">
                    <g id="Group-4">
                        <g id="Group-3" transform="translate(0.000000, 0.385965)">
                            <g id="Group-2" transform="translate(0.000000, -0.000000)">
                                <g id="Group" transform="translate(0.000000, -0.000000)">
                                    <path d="M14.9764596,15.2474501 L16.8209868,19.6491228 L20.2897992,19.6491228 L11.8655406,0.148041336 L8.53437957,0.148041336 L0.0275302567,19.6491228 L3.41375183,19.6491228 L5.25827903,15.2474501 L14.9764596,15.2474501 L14.9764596,15.2474501 Z M13.7375981,12.3222879 L6.46961032,12.3222879 L10.1036042,3.658236 L13.7375981,12.3222879 L13.7375981,12.3222879 Z" id="A" fill="#252525"></path>
                                    <path d="M22.772963,36.0640807 L31.5000544,10.071925 L28.8020893,10.071925 L20.0749979,36.0640807 L22.772963,36.0640807 L22.772963,36.0640807 Z" id="/" fill="#252525"></path>
                                    <path d="M32.3650872,23.3636145 L32.3650872,42.864696 L40.9269971,42.864696 C45.2767776,42.864696 47.9472125,40.8588705 47.9472125,37.5158279 C47.9472125,34.8971113 46.4055181,33.0305792 43.817674,32.5848402 C45.9099735,32.0833838 47.2038956,30.4397212 47.2038956,28.2388849 C47.2038956,25.2022879 44.7261725,23.3636145 40.7342853,23.3636145 L32.3650872,23.3636145 L32.3650872,23.3636145 Z M35.6136575,26.2887767 L40.5691037,26.2887767 C42.633873,26.2887767 43.8727345,27.1802547 43.8727345,28.8239173 C43.8727345,30.4675799 42.633873,31.442634 40.5691037,31.442634 L35.6136575,31.442634 L35.6136575,26.2887767 L35.6136575,26.2887767 Z M35.6136575,34.3399375 L40.5691037,34.3399375 C43.1018873,34.3399375 44.6160515,35.370709 44.6160515,37.0979476 C44.6160515,38.936621 43.1018873,39.9395338 40.5691037,39.9395338 L35.6136575,39.9395338 L35.6136575,34.3399375 L35.6136575,34.3399375 Z" id="B" fill="#242424"></path>
                                </g>
                            </g>
                        </g>
                    </g>
                </g>
            </g>
        </g>
    </g>
</svg>