<?xml version="1.0" encoding="UTF-8" standalone="no"?>
<svg width="199px" height="56px" viewBox="0 0 199 56" version="1.1" xmlns="http://www.w3.org/2000/svg" xmlns:xlink="http://www.w3.org/1999/xlink" xmlns:sketch="http://www.bohemiancoding.com/sketch/ns">
    <!-- Generator: Sketch 3.5.2 (25235) - http://www.bohemiancoding.com/sketch -->
    <title>ablogowhite</title>
    <desc>Created with Sketch.</desc>
    <defs></defs>
    <g id="Page-1" stroke="none" stroke-width="1" fill="none" fill-rule="evenodd" sketch:type="MSPage">
        <g id="ablogowhite" sketch:type="MSArtboardGroup" fill="#FFFFFF">
            <g id="Group-4" sketch:type="MSLayerGroup">
                <g id="Group-3" transform="translate(0.000000, 6.385965)" sketch:type="MSShapeGroup">
                    <g id="Group-2">
                        <g id="Group">
                            <path d="M14.9764596,15.2474501 L16.8209868,19.6491228 L20.2897992,19.6491228 L11.8655406,0.148041336 L8.53437957,0.148041336 L0.0275302567,19.6491228 L3.41375183,19.6491228 L5.25827903,15.2474501 L14.9764596,15.2474501 Z M13.7375981,12.3222879 L6.46961032,12.3222879 L10.1036042,3.658236 L13.7375981,12.3222879 Z" id="A"></path>
                            <path d="M22.772963,36.0640807 L31.5000544,10.071925 L28.8020893,10.071925 L20.0749979,36.0640807 L22.772963,36.0640807 Z" id="/"></path>
                            <path d="M32.3650872,23.3636145 L32.3650872,42.864696 L40.9269971,42.864696 C45.2767776,42.864696 47.9472125,40.8588705 47.9472125,37.5158279 C47.9472125,34.8971113 46.4055181,33.0305792 43.817674,32.5848402 C45.9099735,32.0833838 47.2038956,30.4397212 47.2038956,28.2388849 C47.2038956,25.2022879 44.7261725,23.3636145 40.7342853,23.3636145 L32.3650872,23.3636145 Z M35.6136575,26.2887767 L40.5691037,26.2887767 C42.633873,26.2887767 43.8727345,27.1802547 43.8727345,28.8239173 C43.8727345,30.4675799 42.633873,31.442634 40.5691037,31.442634 L35.6136575,31.442634 L35.6136575,26.2887767 Z M35.6136575,34.3399375 L40.5691037,34.3399375 C43.1018873,34.3399375 44.6160515,35.370709 44.6160515,37.0979476 C44.6160515,38.936621 43.1018873,39.9395338 40.5691037,39.9395338 L35.6136575,39.9395338 L35.6136575,34.3399375 Z" id="B"></path>
                        </g>
                    </g>
                    <path d="M84.2864078,18.6666667 L84.2864078,3.19298246 L82.1456311,3.19298246 L76.5752427,14.3340351 L70.9830097,3.19298246 L68.8203883,3.19298246 L68.8203883,18.6666667 L70.4805825,18.6666667 L70.4805825,5.91192982 L76.0291262,17.0308772 L77.0776699,17.0308772 L82.6480583,5.91192982 L82.6699029,18.6666667 L84.2864078,18.6666667 Z M95.5145631,3.14877193 C91.0364078,3.14877193 87.4975728,6.55298246 87.4975728,10.9298246 C87.4975728,15.2845614 91.0364078,18.7550877 95.5145631,18.7550877 C99.9708738,18.7550877 103.509709,15.2845614 103.509709,10.9298246 C103.509709,6.57508772 99.9708738,3.14877193 95.5145631,3.14877193 L95.5145631,3.14877193 Z M95.5145631,4.82877193 C98.9223301,4.82877193 101.718447,7.52561404 101.718447,10.9298246 C101.718447,14.3340351 98.9223301,17.0529825 95.5145631,17.0529825 C92.1067961,17.0529825 89.2669903,14.3340351 89.2669903,10.9298246 C89.2669903,7.52561404 92.1067961,4.82877193 95.5145631,4.82877193 L95.5145631,4.82877193 Z M106.699029,3.19298246 L106.699029,18.6666667 L112.815534,18.6666667 C117.315534,18.6666667 120.745146,15.3287719 120.745146,10.9298246 C120.745146,6.53087719 117.337379,3.19298246 112.881068,3.19298246 L106.699029,3.19298246 Z M108.446602,4.89508772 L112.837379,4.89508772 C116.26699,4.89508772 118.975728,7.48140351 118.975728,10.9519298 C118.975728,14.4003509 116.31068,16.9866667 112.902913,16.9866667 L108.446602,16.9866667 L108.446602,4.89508772 Z M134.31068,4.89508772 L134.31068,3.19298246 L123.934466,3.19298246 L123.934466,18.6666667 L134.59466,18.6666667 L134.59466,16.9866667 L125.682039,16.9866667 L125.682039,11.6814035 L133.393204,11.6814035 L133.393204,9.97929825 L125.682039,9.97929825 L125.682039,4.89508772 L134.31068,4.89508772 Z M148.160194,18.6666667 L150.148058,18.6666667 L146.565534,13.405614 C148.771845,12.6761404 149.995146,10.9519298 149.995146,8.3877193 C149.995146,5.09403509 147.788835,3.19298246 143.966019,3.19298246 L138.15534,3.19298246 L138.15534,18.6666667 L139.902913,18.6666667 L139.902913,13.7814035 L143.966019,13.7814035 C144.315534,13.7814035 144.665049,13.7592982 144.992718,13.737193 L148.160194,18.6666667 Z M139.902913,12.0792982 L139.902913,4.89508772 L143.966019,4.89508772 C146.740291,4.89508772 148.313107,6.08877193 148.313107,8.43192982 C148.313107,10.8414035 146.740291,12.0792982 143.966019,12.0792982 L139.902913,12.0792982 Z M166.662621,18.6666667 L166.662621,3.19298246 L164.936893,3.19298246 L164.936893,15.6382456 L155.762136,3.19298246 L153.949029,3.19298246 L153.949029,18.6666667 L155.696602,18.6666667 L155.696602,6.24350877 L164.871359,18.6666667 L166.662621,18.6666667 Z M84.2864078,40.7719298 L84.2864078,25.2982456 L82.1456311,25.2982456 L76.5752427,36.4392982 L70.9830097,25.2982456 L68.8203883,25.2982456 L68.8203883,40.7719298 L70.4805825,40.7719298 L70.4805825,28.017193 L76.0291262,39.1361404 L77.0776699,39.1361404 L82.6480583,28.017193 L82.6699029,40.7719298 L84.2864078,40.7719298 Z M98.6165049,36.8592982 L100.320388,40.7719298 L102.220874,40.7719298 L95.3834951,25.2982456 L93.5703883,25.2982456 L86.711165,40.7719298 L88.5679612,40.7719298 L90.2718447,36.8592982 L98.6165049,36.8592982 Z M97.8737864,35.157193 L91.0145631,35.157193 L94.4223301,27.3098246 L97.8737864,35.157193 Z M114.628641,40.7719298 L116.616505,40.7719298 L113.033981,35.5108772 C115.240291,34.7814035 116.463592,33.057193 116.463592,30.4929825 C116.463592,27.1992982 114.257282,25.2982456 110.434466,25.2982456 L104.623786,25.2982456 L104.623786,40.7719298 L106.371359,40.7719298 L106.371359,35.8866667 L110.434466,35.8866667 C110.783981,35.8866667 111.133495,35.8645614 111.461165,35.8424561 L114.628641,40.7719298 Z M106.371359,34.1845614 L106.371359,27.0003509 L110.434466,27.0003509 C113.208738,27.0003509 114.781553,28.1940351 114.781553,30.537193 C114.781553,32.9466667 113.208738,34.1845614 110.434466,34.1845614 L106.371359,34.1845614 Z M130.771845,40.7719298 L132.912621,40.7719298 L126.402913,32.0182456 L132.453883,25.2982456 L130.378641,25.2982456 L122.165049,34.2066667 L122.165049,25.2982456 L120.417476,25.2982456 L120.417476,40.7719298 L122.165049,40.7719298 L122.165049,36.7266667 L125.135922,33.4329825 L130.771845,40.7719298 Z M146.063107,27.0003509 L146.063107,25.2982456 L135.686893,25.2982456 L135.686893,40.7719298 L146.347087,40.7719298 L146.347087,39.0919298 L137.434466,39.0919298 L137.434466,33.7866667 L145.145631,33.7866667 L145.145631,32.0845614 L137.434466,32.0845614 L137.434466,27.0003509 L146.063107,27.0003509 Z M159.563107,27.0003509 L159.563107,25.2982456 L147.832524,25.2982456 L147.832524,27.0003509 L152.813107,27.0003509 L152.813107,40.7719298 L154.56068,40.7719298 L154.56068,27.0003509 L159.563107,27.0003509 Z M163.84466,40.7719298 L163.84466,25.2982456 L162.097087,25.2982456 L162.097087,40.7719298 L163.84466,40.7719298 Z M181.18932,40.7719298 L181.18932,25.2982456 L179.463592,25.2982456 L179.463592,37.7435088 L170.288835,25.2982456 L168.475728,25.2982456 L168.475728,40.7719298 L170.223301,40.7719298 L170.223301,28.3487719 L179.398058,40.7719298 L181.18932,40.7719298 Z M196.502427,33.2119298 L196.502427,37.8761404 C195.322816,38.6940351 193.859223,39.1803509 192.48301,39.1803509 C188.987864,39.1803509 186.169903,36.4614035 186.169903,33.0350877 C186.169903,29.6308772 188.966019,26.9119298 192.461165,26.9119298 C194.165049,26.9119298 195.847087,27.5750877 197.092233,28.7024561 L198.097087,27.3761404 C196.633495,26.0719298 194.580097,25.2540351 192.461165,25.2540351 C187.961165,25.2540351 184.400485,28.6803509 184.400485,33.0350877 C184.400485,37.3898246 187.93932,40.8603509 192.373786,40.8603509 C194.427184,40.8603509 196.546117,40.0424561 198.053398,38.8266667 L198.053398,33.2119298 L196.502427,33.2119298 Z" id="MODERN"></path>
                </g>
                <rect id="Rectangle-1" sketch:type="MSShapeGroup" x="57.5242718" y="0" width="1.21359223" height="56"></rect>
            </g>
        </g>
    </g>
</svg>